<svg id="레이어_1" data-name="레이어 1" xmlns="http://www.w3.org/2000/svg" xmlns:xlink="http://www.w3.org/1999/xlink" viewBox="0 0 271.59 295.47"><defs><style>.cls-1{fill:#1c1c1b;}.cls-2{fill:url(#linear-gradient);}.cls-3{fill:url(#linear-gradient-2);}.cls-4{fill:url(#linear-gradient-3);}.cls-5{fill:url(#linear-gradient-4);}.cls-6{fill:url(#linear-gradient-5);}.cls-7{fill:url(#linear-gradient-6);}</style><linearGradient id="linear-gradient" x1="1092.04" y1="435.02" x2="1178.12" y2="435.02" gradientUnits="userSpaceOnUse"><stop offset="0" stop-color="#004363"/><stop offset="1" stop-color="#232652"/></linearGradient><linearGradient id="linear-gradient-2" x1="888.89" y1="409.23" x2="1062.9" y2="459.9" gradientUnits="userSpaceOnUse"><stop offset="0" stop-color="#bfe2eb"/><stop offset="1" stop-color="#4abac0"/></linearGradient><linearGradient id="linear-gradient-3" x1="847.7" y1="550.71" x2="1021.71" y2="601.37" gradientUnits="userSpaceOnUse"><stop offset="0" stop-color="#8fc581"/><stop offset="1" stop-color="#4abac0"/></linearGradient><linearGradient id="linear-gradient-4" x1="1110.23" y1="487.18" x2="1185.91" y2="597.93" xlink:href="#linear-gradient"/><linearGradient id="linear-gradient-5" x1="1052.12" y1="526.89" x2="1127.8" y2="637.64" gradientUnits="userSpaceOnUse"><stop offset="0" stop-color="#0074ab"/><stop offset="1" stop-color="#343f84"/></linearGradient><linearGradient id="linear-gradient-6" x1="1145.91" y1="641.26" x2="1146.12" y2="641.62" xlink:href="#linear-gradient-5"/></defs><path class="cls-1" d="M1125.07,681.74a.47.47,0,0,1,0,.23l-.15.39a6.21,6.21,0,0,1-.52.95c0,.05,0,.14,0,.19s-.14.19-.24.29-.14.19-.19.28Z" transform="translate(-925.49 -391.98)"/><path class="cls-2" d="M1178.12,435a43,43,0,1,1-43.07-43A43.11,43.11,0,0,1,1178.12,435Z" transform="translate(-925.49 -391.98)"/><path class="cls-3" d="M1020.47,435a43,43,0,1,1-43-43A43.1,43.1,0,0,1,1020.47,435Z" transform="translate(-925.49 -391.98)"/><path class="cls-4" d="M1052.13,632.58a312.21,312.21,0,0,1-19.06,26.23c-2.11,2.63-4.14,5.13-6.21,7.5-5.74,6.73-11.26,12.68-16.22,17.82a8.07,8.07,0,0,1-2.16,2c-.39.26-.86.48-1.29.73a8.25,8.25,0,0,1-3.19.61h-.13a8.08,8.08,0,0,1-5.61-2.33s0,0-.09,0,0-.05,0-.05a5.18,5.18,0,0,1-.48-.51v0a5.83,5.83,0,0,1-.94-1.33,8.76,8.76,0,0,1-.65-1.47l-64.4-126.22a2.39,2.39,0,0,1-.13-.21,35.45,35.45,0,0,1-3.75-7.33.67.67,0,0,1-.09-.22,36.16,36.16,0,0,1,30.8-48.44h25.79c.22,0,.43,0,.65,0,.69.13,1.34.22,2,.39a9.5,9.5,0,0,1,2.29,1.21,13.52,13.52,0,0,1,1.34,1.29,8.67,8.67,0,0,1,1.64,2.76l17.6,42.49.08.17c0,.18.17.35.26.61l.39.9c4.57,10.23,29.25,65,41.15,82.74Z" transform="translate(-925.49 -391.98)"/><path class="cls-1" d="M1104.89,562.14l0,0c-.43-1.25-.87-2.41-1.26-3.58C1104,559.81,1104.46,560.93,1104.89,562.14Z" transform="translate(-925.49 -391.98)"/><path class="cls-5" d="M1197.08,535.28a36.59,36.59,0,0,1-2.09,12.08l-1.2,2.49-.29.54-2.78,5.28-36.65,70.38c-7.85,1.3-21.73-17.06-27.22-24.58-11.28-15.51-17.21-26.75-20.9-36.22-.11-.36-.25-.72-.4-1.08-.21-.65-.47-1.3-.68-1.92,0,0,0,0,0-.07l.07,0,3.8-9.43,19.12-47.65a8.35,8.35,0,0,1,6.62-5.63,3.93,3.93,0,0,1,1.33-.19h28.31A36.14,36.14,0,0,1,1197.08,535.28Z" transform="translate(-925.49 -391.98)"/><path class="cls-6" d="M1154.07,626.05v0l-7.85,15,0,.07-.36.65-1.55,2.93-19.16,36.91,0,.11-1.19,2.35c-.18.21-.4.5-.61.76l-.22.18s0,0-.07.07a7,7,0,0,1-2.17,1.45,8,8,0,0,1-3.51.83,8.41,8.41,0,0,1-5.93-2.46c-.18-.22-.43-.4-.61-.62-4.3-4.44-9-9.47-13.88-15.07a327.71,327.71,0,0,1-27.8-36.65c-2.06-3.26-4.19-6.51-6.15-10-.79-1.22-1.55-2.53-2.31-3.86-3.25-5.61-6.32-11.46-9.29-17.46-2.67-5.57-5.24-11.32-7.52-17.17-9.14-23.17-15.18-48.88-15.18-76.53a7.89,7.89,0,0,1,2.46-5.82,8,8,0,0,1,5.82-2.46h47.39a8.09,8.09,0,0,1,5.89,2.46,8.3,8.3,0,0,1,2.42,5.82c0,.11-.07.29-.07.43s.76,7.56,2.35,17.9v0c1.52,7.6,3.22,14.93,5.35,22.13,1.08,3.32,2.1,6.79,3.36,10.48.4,1.19.83,2.35,1.23,3.58,0,0,0,0,0,.07.21.62.47,1.27.68,1.92.15.36.29.72.4,1.08,3.69,9.47,9.62,20.71,20.9,36.22C1132.34,609,1146.22,627.35,1154.07,626.05Z" transform="translate(-925.49 -391.98)"/><path class="cls-7" d="M1146.22,641.09a2.5,2.5,0,0,0-.09.25.94.94,0,0,1-.3.48Z" transform="translate(-925.49 -391.98)"/></svg>